<svg id="Layer_2" data-name="Layer 2" xmlns="http://www.w3.org/2000/svg" viewBox="0 0 511.17 511.09"><path d="M511.17,462.18v48.91H7.15c-5.4-2.94-7.38-7.42-7.08-13.57a243.16,243.16,0,0,0,0-24.45c-.78-15.78,5.12-27.47,20-34.19V32.22C20.14,13.48,32.76,0,50.15,0S80,13.57,80,32.39V83.46H233.89c-1.47-16.14,1.89-30.16,16.57-38.68s28.35-5.82,41.2,4.75c7-6,14.78-9.62,24-9.6s17,3.77,23.82,9.6c.86-.63,1.41-1,1.92-1.41,11.34-9.06,23.82-11,36.83-4.63s19.13,17.43,19.13,31.89V83.6h34V78c0-16.13-.17-32.27.05-48.4a29.89,29.89,0,0,1,38-28.48c13.4,3.67,21.84,15.55,21.84,30.91V432.71a17.27,17.27,0,0,0,.07,4c.26,1.12.86,2.66,1.73,3.06C502.9,444.16,508,452.36,511.17,462.18Zm-491,28.7h471V472.31c0-12.13-2.95-15.12-14.9-15.12H304.69a37.13,37.13,0,0,1-5.48-.16,9.92,9.92,0,0,1,.1-19.66,36.27,36.27,0,0,1,5-.13H431V359.73H397.22c1.44,16.1-1.87,30.13-16.54,38.67s-28.36,5.84-41.3-4.79c-6.84,6.17-14.72,9.63-23.94,9.66s-17-3.82-23.83-9.58c-.86.62-1.41,1-1.92,1.4-11.35,9-23.77,11-36.83,4.6s-19.14-17.41-19.15-31.86V359.6H80.31v77.62H206.74a46.31,46.31,0,0,1,5,.09,9.94,9.94,0,0,1-.05,19.79,46.31,46.31,0,0,1-5,.08H35c-1.67,0-3.34-.09-5,.05-5.38.46-9.6,4.23-9.81,9.54-.26,7.94,0,15.89,0,24.11Zm213.69-386.7H80.42V211.33h33.67c-1.41-16,1.76-30,16.36-38.64s28.63-5.94,41.42,4.55c.77-.54,1.33-.89,1.83-1.3,11.32-9.08,23.79-11.05,36.82-4.71s19.17,17.38,19.2,31.84v8.16h99.81v-9.35c.25-19.08,15.09-34.1,33.76-34.16,18.91-.07,33.83,15,34.08,34.34v9.17H431V104.14h-33.8c1.41,16-1.81,30.07-16.44,38.65s-28.64,5.8-41.43-4.68c-7,6.15-14.72,9.57-23.78,9.61-9.24.05-17-3.7-24-9.6-12.9,10.66-26.72,13.16-41.25,4.69s-17.88-22.6-16.45-38.63ZM431.09,231.59H397.37c0,4,.07,7.34,0,10.65a33.91,33.91,0,0,1-67.81,0c-.08-3.43,0-6.86,0-10.26h-100c1.47,16.08-1.9,30-16.53,38.63s-28.64,5.64-41.3-4.59q-22,16.46-41.43,4.48c-14.42-8.89-17.59-22.82-16.25-38.61H80.36V339H233.89c-1.47-16.15,1.9-30.16,16.58-38.68s28.36-5.81,41.28,4.82c6.83-6.21,14.72-9.64,23.94-9.65s17,3.76,23.82,9.58c.87-.63,1.41-1,1.93-1.41,11.33-9.05,23.81-11,36.82-4.63s19.13,17.44,19.13,31.89v8.22h33.7ZM60,437V33.45a36.73,36.73,0,0,0-.1-4.45,9.93,9.93,0,0,0-19.78.2A41.33,41.33,0,0,0,40,33.65V437Zm391.24,0h20V34.14c0-9.41-3.48-14.25-10.14-14.14s-9.82,4.81-9.82,14V437ZM253.68,93.34c0,6.64-.1,13.29,0,19.93.16,8.35,6.15,14.47,13.94,14.47s13.83-6.12,13.92-14.49q.21-19.43,0-38.86c-.08-8.36-6.14-14.47-13.93-14.46S253.87,66,253.71,74.41C253.58,80.72,253.68,87,253.68,93.34Zm75.84.49c0-6.48.1-13,0-19.43-.17-8.37-6.15-14.47-13.94-14.47s-13.87,6.07-14,14.47q-.19,19.42,0,38.86c.09,8.36,6.14,14.48,13.93,14.48s13.77-6.12,13.94-14.48C329.62,106.78,329.51,100.31,329.52,93.83Zm47.91.17V74.56c-.24-8.41-6-14.54-13.8-14.63-8-.1-14,6.13-14.1,14.8q-.16,19.18,0,38.37c.08,8.41,6,14.54,13.77,14.64,8,.1,14-6.13,14.12-14.81C377.51,106.62,377.43,100.31,377.43,94ZM133.91,221.61V241c.27,8.35,6.18,14.47,14,14.47s13.84-6.12,13.93-14.48q.19-19.44,0-38.86c-.09-8.37-6.14-14.47-13.94-14.47s-13.77,6.11-13.93,14.48C133.81,208.65,133.91,215.13,133.91,221.61Zm75.85,0V202.16c-.28-8.37-6.18-14.47-14-14.47s-13.84,6.11-13.92,14.48q-.19,19.43,0,38.86c.08,8.35,6.14,14.47,13.93,14.47s13.76-6.12,13.93-14.48c.15-6.47.05-13,.06-19.42Zm167.66.16c0-6.65.13-13.29,0-19.93-.2-8.06-6.17-14-13.77-14.13-7.81-.09-14,6-14.07,14.32q-.22,19.42,0,38.86c.08,8.41,6,14.54,13.78,14.63,8,.09,14-6.13,14.11-14.82,0-6.32,0-12.63-.05-18.94ZM253.68,349c0,6.47-.08,12.95,0,19.43.13,8.71,6.07,14.93,14.06,14.86,7.79-.06,13.75-6.18,13.83-14.58.12-13,.14-25.91,0-38.86-.1-8.33-6.24-14.43-14-14.37s-13.67,6.2-13.83,14.58C253.59,336.36,253.68,342.67,253.68,349Zm75.84.59c0-6.48.09-13,0-19.43-.15-8.43-6-14.56-13.75-14.68-8-.12-14.07,6.11-14.14,14.77q-.17,19.19,0,38.36c.08,8.43,5.95,14.56,13.74,14.68,8,.12,14-6.1,14.15-14.77.09-6.32,0-12.63,0-18.94Zm47.9-.21c0-6.48.11-13,0-19.43-.17-8.37-6.15-14.47-13.95-14.47s-13.86,6.1-13.94,14.52q-.19,19.42,0,38.86c.09,8.35,6.14,14.47,13.93,14.47s13.76-6.11,13.93-14.48c.14-6.52,0-13,0-19.48Z" transform="translate(0 0)" style="fill:#41e3d0"/><path d="M265.64,447.22a10.05,10.05,0,0,1-9.75,9.89,10.18,10.18,0,0,1-10.13-10.06,10,10,0,0,1,10.17-9.82h.1A9.89,9.89,0,0,1,265.64,447.22Z" transform="translate(0 0)" style="fill:#41e3d0"/></svg>