<svg id="Layer_2" data-name="Layer 2" xmlns="http://www.w3.org/2000/svg" viewBox="0 0 958.92 782.28"><ellipse cx="403.78" cy="745.09" rx="175.62" ry="27.43" style="fill:#2085b7"/><path d="M542.78,177.27c-45.63-66.38-156.61-66.38-156.61-66.38s-111,0-156.62,66.38c-41.88,60.93-41.49,144.17-41.49,144.17l40.45,51.86H543.82l40.45-51.86S584.67,238.2,542.78,177.27Z" style="fill:#d5e9f2"/><path d="M542.85,177.27c-17.89-26-45.83-41.84-73.18-51.46,14.15,8.81,27,20,36.88,34.35C548.43,221.08,548,304.33,548,304.33l-40.45,51.86H215.23l13.35,17.11h315.3l40.45-51.86S584.73,238.2,542.85,177.27Z" style="fill:#a8d7e9"/><path d="M486.78,190.76c-42.53-32.16-158.69-32.16-201.22,0C239.39,225.66,241,309,241,309H531.38S532.94,225.66,486.78,190.76Z" style="fill:#002b43"/><path d="M242.17,309c2.85-27.19,12.29-72.69,43.39-96.21,42.53-32.15,158.69-32.15,201.22,0,31.1,23.52,40.54,69,43.38,96.21h1.22s1.56-83.34-44.6-118.24c-42.53-32.16-158.69-32.16-201.22,0C239.39,225.66,241,309,241,309Z" style="fill:#000f16"/><rect x="345.2" y="95.33" width="81.94" height="34.23" rx="6.22" style="fill:#d5e9f2"/><polygon points="367.67 111.93 377 24.8 389.45 24.8 404.67 112.45 367.67 111.93" style="fill:#d5e9f2"/><path d="M398.61,24.81a15,15,0,1,1-15-15A15,15,0,0,1,398.61,24.81Z" style="fill:#d5e9f2"/><path d="M393,13.06a14.88,14.88,0,0,1,1.51,6.56A15,15,0,0,1,370,31.37,15,15,0,1,0,393,13.06Z" style="fill:#a8d7e9"/><polygon points="228.51 373.3 543.82 373.3 584.27 321.44 188.06 321.44 228.51 373.3" style="fill:#a8d7e9"/><path d="M427.14,113.16c0,2.18-1.4,4-3.11,4H389.28c-1.72,0-3.11-1.78-3.11-4V99.3c0-2.19,1.39-4,3.11-4H424c1.71,0,3.11,1.78,3.11,4Z" style="fill:#a8d7e9"/><path d="M324.1,139.5c-5.05-9.67-27.91-4.13-35.39-.6-6.1,2.88-17.15,9.26-24.19,16a82.8,82.8,0,0,0-14.91,15.46c-3.61,4.85-10.41,14.85-6.05,21.21,4.8,7,12.9.94,16.92-3.11C271,178,279,166.7,293.19,160.29,300.17,157.14,330.06,150.9,324.1,139.5Z" style="fill:#fff"/><path d="M377.58,16.13c-7.08,1.72-4.37,16.51,4.34,8.55C388.85,18.34,381.59,14.36,377.58,16.13Z" style="fill:#fff"/><path d="M601.09,490.79,539.47,384.51H232.87L171.25,490.79s2.64,44.28,17.5,84.77c22.85,62.23,44.63,87.12,44.63,87.12l75.42,29.13,76.68,7.05V699s.52-.06.69-.06.68.06.68.06v-.12l76.69-7.05L539,662.68s27.36-35.26,44.63-87.12C597.21,534.64,601.09,490.79,601.09,490.79Z" style="fill:#d5e9f2"/><path d="M539.47,384.51H466.86l61.63,106.28s-3.88,43.85-17.51,84.77c-17.26,51.86-25,72.51-44.63,87.12-16.21,12.07-75.42,29.13-75.42,29.13l-41.06,3.77,35.61,3.28V699s.52-.06.69-.06.68.06.68.06v-.12l76.69-7.05L539,662.68s27.36-35.26,44.63-87.12c13.62-40.92,17.5-84.77,17.5-84.77Z" style="fill:#a8d7e9"/><polygon points="171.25 490.79 601.09 490.79 584.34 522.66 171.25 490.79" style="fill:#a8d7e9"/><path d="M257.53,561.27c-1.22-15.42,9.31-36.69-8.29-44.83-9.05-4.18-24.33-5.9-31.32,3.08a21,21,0,0,0-4.12,11.79c-2.52,11,3.4,27.1,6.16,37,3.26,11.6,14.55,52.42,35.35,41.31C269.48,602,258.44,572.69,257.53,561.27Z" style="fill:#fff"/><path d="M280.15,406.7c-9.35-13.34-22.51-8.9-31.87.79-20.83,12.68-42.95,64.49-11.46,69.56,18.16,2.92,23.72-19.21,29.87-31.17C272.33,434.91,289.33,419.8,280.15,406.7Z" style="fill:#fff"/><path d="M557.34,384.51S692.17,300.7,718.1,300.7s15.56,46.67-25.93,97.65c-40.26,49.47-79.86,79-79.86,79Z" style="fill:#d5e9f2"/><path d="M718.1,300.7c-2.59,0-6.27.84-10.79,2.34-.74,18.24-14.49,48-40,79.37A530.87,530.87,0,0,1,597.89,453l14.42,24.34s39.6-29.49,79.86-79C733.66,347.37,744,300.7,718.1,300.7Z" style="fill:#a8d7e9"/><path d="M221.09,384.51S53.34,357.42,32.69,366,36,411.42,86.14,441.66c48.67,29.33,77,37.33,77,37.33Z" style="fill:#d5e9f2"/><path d="M32.69,366a29.91,29.91,0,0,1,9.39-1.55c6.71,15.48,27.65,36.59,58.53,55.21,33.42,20.14,58.79,31.73,82,27.56L163.16,479s-28.35-8-77-37.33C36,411.42,12.05,374.59,32.69,366Z" style="fill:#a8d7e9"/><path d="M109.42,384.68c-4.76-7.56-21.61-12.1-29.54-11.67-4.07.22-6.77,1.62-8.31,3.54-3.73,2.35-3.38,5.38-.66,8.41a10.72,10.72,0,0,0,7.59,5.77v-.14C94,399.18,121.45,403.8,109.42,384.68Z" style="fill:#fff"/><path d="M689.09,320.2c-3.54-2.33-13.84,2.91-16.76,4.35-4.89,2.41-17.52,10.35-20.16,17.93-2.93,4-3.45,7.88,1.4,10.3,7.32,3.64,27.69-12.86,32.11-18.3C688.43,331.09,694,323.38,689.09,320.2Z" style="fill:#fff"/><path d="M232.52,671.86s27.37,71.4,50.29,73.73S306.41,699,306.41,699Z" style="fill:#d5e9f2"/><path d="M288,691.93c-.27,6.92-2.39,40.71-18.51,45,4.72,4.92,9.52,8.19,14.13,8.66,22.93,2.34,23.6-46.61,23.6-46.61Z" style="fill:#a8d7e9"/><path d="M471.32,699s35,53.8,80.12,42.56c18.86-4.7-10.89-69.68-10.89-69.68Z" style="fill:#d5e9f2"/><path d="M540.55,671.86l-18.78,7.36c7.56,19,19.52,54.24,5.81,57.66a52.24,52.24,0,0,1-10.88,1.51c10.44,4.37,22.2,6.28,34.74,3.15C570.3,736.84,540.55,671.86,540.55,671.86Z" style="fill:#a8d7e9"/><path d="M339.13,242.37a3.48,3.48,0,0,1-3.48-3.44,18.44,18.44,0,0,0-2.69-8.37c-3.31-5.26-9.16-7.93-17.4-7.93h-.17c-17.78.08-20.23,15-20.33,15.61a3.48,3.48,0,1,1-6.88-1c1.11-7.42,8.23-21.47,27.18-21.55h.2c26.48,0,27.05,23,27.05,23.19a3.47,3.47,0,0,1-3.44,3.52Z" style="fill:#41e3d0"/><path d="M480.79,242.37a3.48,3.48,0,0,1-3.48-3.44,18.44,18.44,0,0,0-2.69-8.37c-3.31-5.26-9.16-7.93-17.4-7.93h-.17c-17.78.08-20.23,15-20.32,15.61a3.48,3.48,0,1,1-6.89-1c1.11-7.42,8.23-21.47,27.18-21.55h.2c26.48,0,27,23,27.06,23.19a3.48,3.48,0,0,1-3.45,3.52Z" style="fill:#41e3d0"/><path d="M401.44,273.11c0,10.86-6.27,19.66-14,19.66s-14-8.8-14-19.66,6.27-19.67,14-19.67S401.44,262.24,401.44,273.11Z" style="fill:#41e3d0"/><path d="M620.3,258.6a8.35,8.35,0,0,1-3.77-1.43c-2.38-1.68-3.28-4.37-2.25-6.71l32-72.62c-18.63-21.1-27.26-45.46-24.35-68.95,7.25-58.59,82.94-97.62,168.72-87S940.33,88.8,933.08,147.4s-82.94,97.62-168.72,87a220.69,220.69,0,0,1-58.09-15.23l-81.45,38.73A8.21,8.21,0,0,1,620.3,258.6Zm168.9-225c-77.92-9.65-146.56,24.91-153,77-2.68,21.71,5.53,43.47,23.76,62.93a5.23,5.23,0,0,1,1.17,5.76l-26.39,59.88,67.27-32a8.45,8.45,0,0,1,6.93,0,201.69,201.69,0,0,0,56.88,15.46c77.92,9.65,146.56-24.91,153-77S867.12,43.27,789.2,33.63Z" style="fill:#41e3d0"/><path d="M737.91,101.39c.74-4.32,3.65-6.53,7.63-5.86s6,3.74,5.27,8l-4.76,27.93c-.73,4.32-3.65,6.53-7.63,5.85s-6-3.73-5.27-8.05l1.61-9.42-12.62-2.15-1.6,9.42c-.74,4.32-3.65,6.54-7.64,5.86s-6-3.74-5.26-8.05L712.4,97c.73-4.32,3.65-6.53,7.63-5.85s6,3.73,5.27,8l-1.3,7.62L736.61,109Z" style="fill:#41e3d0"/><path d="M822.46,140.2c3.31.56,5.23,2.85,4.66,6.16s-3.13,4.83-6.44,4.27l-19.06-3.25c-5-.85-7-3.55-6-8.93L800.09,112c.74-4.32,3.65-6.53,7.63-5.85s6,3.73,5.27,8.05l-4,23.72Z" style="fill:#41e3d0"/><path d="M776.91,100.83c10.7,1.82,19.66,10.56,17.25,24.7-2.49,14.63-13.64,19.43-24.46,17.58S750,133.05,752.44,118.42C754.85,104.29,766.2,99,776.91,100.83Zm-1.73,10.09c-5.38-.91-8.72,3.13-9.84,9.69s.7,11.49,6.08,12.41,8.73-3.13,9.85-9.69S780.57,111.84,775.18,110.92Z" style="fill:#41e3d0"/><path d="M886.89,147.93a6.37,6.37,0,1,1-7.36,5.21A6.37,6.37,0,0,1,886.89,147.93Zm4.91-28.87c4.38.74,5.69,3.56,5,7.6s-2.68,10-5.48,16.89c-.79,1.95-1.73,2.71-4.08,2.31s-3-1.43-3.09-3.53c-.35-7.44-.26-13.72.43-17.75S887.43,118.31,891.8,119.06Z" style="fill:#41e3d0"/><path d="M693.71,99.35a6.37,6.37,0,1,1,7.47-5A6.36,6.36,0,0,1,693.71,99.35Zm-5.64,28.74c-4.35-.85-5.59-3.7-4.8-7.72s2.92-9.92,5.89-16.76c.84-1.92,1.8-2.66,4.14-2.2s3,1.51,3,3.6c.17,7.46-.08,13.72-.87,17.74S692.42,129,688.07,128.09Z" style="fill:#41e3d0"/><path d="M842.58,148.74l-1.47,3c-1.11,2.31-3.93,2.81-6.06,2.46-3.08-.51-5.83-3.34-5.3-6.54.33-1.95,2-4.9,3.45-7.57l13.26-23.7c1.89-3.33,4-5,7.43-4.41l4.26.71c3.43.57,4.88,2.82,5.59,6.58L868.59,146c.53,3,1.13,6.33.8,8.28-.53,3.2-4,5-7.13,4.47-2.13-.36-4.63-1.75-4.94-4.29l-.42-3.3Zm11.24-22.88-.12,0-7.21,14.79,9.35,1.56Z" style="fill:#41e3d0"/></svg>