<svg id="Layer_2" data-name="Layer 2" xmlns="http://www.w3.org/2000/svg" viewBox="0 0 356 409.21"><ellipse cx="210.43" cy="394.5" rx="94.15" ry="14.71" style="fill:#2085b7"/><path d="M279.09,112.57C254.63,77,195.13,77,195.13,77s-59.51,0-84,35.58c-22.45,32.66-22.24,77.29-22.24,77.29l21.69,27.81h169l21.66-27.81S301.54,145.23,279.09,112.57Z" transform="translate(-1 -22.79)" style="fill:#d5e9f2"/><path d="M279.12,112.57C269.53,98.64,254.56,90.14,239.89,85a65.63,65.63,0,0,1,19.77,18.42c22.46,32.66,22.24,77.29,22.24,77.29l-21.68,27.8H103.49l7.15,9.18h169l21.68-27.81S301.58,145.23,279.12,112.57Z" transform="translate(-1 -22.79)" style="fill:#a8d7e9"/><path d="M249.06,119.8c-22.79-17.23-85.07-17.23-107.87,0-24.75,18.72-23.91,63.39-23.91,63.39H273S273.81,138.52,249.06,119.8Z" transform="translate(-1 -22.79)" style="fill:#002b43"/><path d="M117.93,183.19c1.53-14.58,6.58-39,23.26-51.57,22.8-17.24,85.08-17.24,107.87,0,16.68,12.61,21.73,37,23.26,51.57H273s.84-44.67-23.91-63.39c-22.79-17.23-85.07-17.23-107.87,0-24.75,18.72-23.91,63.39-23.91,63.39Z" transform="translate(-1 -22.79)" style="fill:#000f16"/><rect x="172.16" y="45.85" width="43.93" height="18.35" rx="3.33" style="fill:#d5e9f2"/><polygon points="184.21 54.75 189.21 8.04 195.89 8.04 204.05 55.03 184.21 54.75" style="fill:#d5e9f2"/><path d="M201.8,30.83a8,8,0,1,1-8-8A8,8,0,0,1,201.8,30.83Z" transform="translate(-1 -22.79)" style="fill:#d5e9f2"/><path d="M198.77,24.54a8,8,0,0,1-12.29,9.81,8,8,0,0,0,14.39-7.18A7.91,7.91,0,0,0,198.77,24.54Z" transform="translate(-1 -22.79)" style="fill:#a8d7e9"/><polygon points="109.61 194.87 278.64 194.87 300.33 167.07 87.92 167.07 109.61 194.87" style="fill:#a8d7e9"/><path d="M217.09,78.2a2,2,0,0,1-1.67,2.14H196.8a1.94,1.94,0,0,1-1.67-2.14V70.77a2,2,0,0,1,1.67-2.15h18.62a2,2,0,0,1,1.67,2.15Z" transform="translate(-1 -22.79)" style="fill:#a8d7e9"/><path d="M161.85,92.33c-2.7-5.19-15-2.22-19-.33a55.74,55.74,0,0,0-13,8.58,44.77,44.77,0,0,0-8,8.33c-1.93,2.6-5.57,8-3.21,11.37,2.56,3.76,6.91.5,9.07-1.66,5.61-5.65,9.92-11.7,17.53-15.13C149,101.78,165.05,98.44,161.85,92.33Z" transform="translate(-1 -22.79)" style="fill:#fff"/><path d="M190.52,26.19c-3.79.91-2.34,8.85,2.33,4.57C196.57,27.37,192.67,25.23,190.52,26.19Z" transform="translate(-1 -22.79)" style="fill:#fff"/><path d="M310.35,280.65l-33-57H112.94l-33,57s1.41,23.74,9.39,45.44c12.25,33.36,23.92,46.71,23.92,46.71l40.44,15.61,41.1,3.76v.07l.37,0c.1,0,.37,0,.37,0v-.07l41.11-3.76L277,372.8A172.57,172.57,0,0,0,301,326.09C308.28,304.16,310.35,280.65,310.35,280.65Z" transform="translate(-1 -22.79)" style="fill:#d5e9f2"/><path d="M277.31,223.67H238.39l33,57s-2.08,23.51-9.38,45.44c-9.26,27.81-13.4,38.88-23.93,46.71-8.69,6.47-40.43,15.61-40.43,15.61l-22,2,19.1,1.75v.07l.37,0,.36,0v-.07l41.11-3.75L277,372.83A172.43,172.43,0,0,0,301,326.12c7.31-21.94,9.39-45.45,9.39-45.45Z" transform="translate(-1 -22.79)" style="fill:#a8d7e9"/><polygon points="78.9 257.85 309.35 257.85 300.36 274.94 78.9 257.85" style="fill:#a8d7e9"/><path d="M126.16,318.43c-.65-8.26,5-19.66-4.45-24-4.82-2.24-13-3.16-16.79,1.66a11.31,11.31,0,0,0-2.2,6.32c-1.36,5.89,1.82,14.52,3.3,19.83,1.75,6.23,7.8,28.1,19,22.15C132.57,340.27,126.65,324.55,126.16,318.43Z" transform="translate(-1 -22.79)" style="fill:#fff"/><path d="M138.29,235.57c-5-7.15-12.07-4.77-17.08.42-11.18,6.8-23.06,34.57-6.15,37.29,9.73,1.57,12.72-10.29,16-16.7C134.1,250.7,143.21,242.59,138.29,235.57Z" transform="translate(-1 -22.79)" style="fill:#fff"/><path d="M106.63,223.67s-73.57-10.61-84.63-6S7.39,238.11,34.28,254.31c26.09,15.73,41.28,20,41.28,20Z" transform="translate(-1 -22.79)" style="fill:#d5e9f2"/><path d="M21.14,217.67c1.1-.46,12-1.56,14.2-1.67,3.61,8.3-9.86,16.54,6.7,26.52,17.91,10.8,31.51,17,44,14.78l-10.44,17s-15.2-4.29-41.28-20C7.39,238.11,10.07,222.27,21.14,217.67Z" transform="translate(-1 -22.79)" style="fill:#a8d7e9"/><path d="M112.75,377.72s14.67,38.28,27,39.53,12.65-25,12.65-25Z" transform="translate(-1 -22.79)" style="fill:#d5e9f2"/><path d="M142.48,388.48c-.14,3.71-1.28,21.83-9.92,24.12,2.53,2.64,5.1,4.4,7.58,4.65,12.29,1.25,12.65-25,12.65-25Z" transform="translate(-1 -22.79)" style="fill:#a8d7e9"/><path d="M240.77,392.26s18.77,28.85,43,22.82c10.12-2.52-5.83-37.36-5.83-37.36Z" transform="translate(-1 -22.79)" style="fill:#d5e9f2"/><path d="M277.89,377.72l-10.07,3.95c4.06,10.18,10.46,29.07,3.12,30.91a28,28,0,0,1-5.83.81,29.17,29.17,0,0,0,18.61,1.69C293.84,412.56,277.89,377.72,277.89,377.72Z" transform="translate(-1 -22.79)" style="fill:#a8d7e9"/><path d="M217.14,158.52a1.31,1.31,0,0,0-1.34,1.27c0,.08-.24,5.92-4,9-3.55,2.93-10,3.91-13.11,3.9-2.93.13-9.57-1-13.12-3.9-3.72-3.07-4-8.91-4-9a1.31,1.31,0,0,0-2.61.07c0,.29.25,7.1,4.9,10.93s10.87,4.51,14.15,4.51c3.93,0,10.66-.59,15.4-4.51s4.89-10.64,4.9-10.93A1.31,1.31,0,0,0,217.14,158.52Z" transform="translate(-1 -22.79)" style="fill:#41e3d0"/><path d="M169.91,147.47a1.87,1.87,0,0,1-1.87-1.85,9.87,9.87,0,0,0-1.44-4.48c-1.77-2.82-4.91-4.25-9.33-4.25h-.09c-9.53,0-10.84,8-10.9,8.37a1.86,1.86,0,1,1-3.69-.54c.6-4,4.42-11.5,14.58-11.54h.1c14.2,0,14.51,12.33,14.51,12.42a1.87,1.87,0,0,1-1.85,1.89h0Z" transform="translate(-1 -22.79)" style="fill:#3aedb1"/><path d="M245.85,147.47a1.86,1.86,0,0,1-1.86-1.85,10,10,0,0,0-1.44-4.48c-1.78-2.82-4.91-4.25-9.33-4.25h-.09c-9.53,0-10.85,8-10.9,8.37a1.87,1.87,0,0,1-3.7-.54c.61-4,4.42-11.5,14.58-11.54h.11c14.19,0,14.5,12.33,14.5,12.42a1.87,1.87,0,0,1-1.84,1.89h0Z" transform="translate(-1 -22.79)" style="fill:#3aedb1"/><path d="M93.24,168.12,5.38,240.79l.08.1c-5.11,5.36-5.9,13.32-1.61,18.54s12.27,5.9,18.51,1.91l.08.09,87.87-72.68Z" transform="translate(-1 -22.79)" style="fill:#ffbf37"/><path d="M107,184.65,25.75,251.84l-.08-.1c-6.24,4-14.19,3.31-18.5-1.91a12.34,12.34,0,0,1-2.8-8c-4.17,5.31-4.59,12.5-.58,17.35,4.32,5.22,12.26,5.9,18.51,1.9l.08.1,87.85-72.65Z" transform="translate(-1 -22.79)" style="fill:#d18f19"/><circle cx="138.89" cy="124.12" r="63.71" style="fill:#ffbf37"/><path d="M201.06,128.67A63.73,63.73,0,0,1,77.49,159.15a63.72,63.72,0,0,0,125.15-24.06A61.35,61.35,0,0,0,201.06,128.67Z" transform="translate(-1 -22.79)" style="fill:#d18f19"/><path d="M172.55,181.52a51.58,51.58,0,1,1,6.87-72.61h0A51.58,51.58,0,0,1,172.55,181.52Z" transform="translate(-1 -22.79)" style="fill:#d18f19"/><circle cx="139.01" cy="125.6" r="51.63" style="fill:#000f16"/><path d="M24,242.75a3.33,3.33,0,0,1-4.69-.44h0a3.35,3.35,0,0,1,.44-4.7L79.81,188a3.32,3.32,0,0,1,4.69.44h0a3.33,3.33,0,0,1-.44,4.7h0Z" transform="translate(-1 -22.79)" style="fill:#fff;opacity:0.30000001192092896;isolation:isolate"/><path d="M171.4,154.29a4.33,4.33,0,0,1-4.33-4.29,22.92,22.92,0,0,0-3.35-10.41c-4.11-6.55-11.39-9.87-21.64-9.87h-.21c-22.13.1-25.17,18.64-25.29,19.43a4.34,4.34,0,1,1-8.58-1.29c1.39-9.23,10.25-26.7,33.82-26.8h.27c32.95,0,33.65,28.55,33.66,28.84a4.33,4.33,0,0,1-4.29,4.38h-.06Z" transform="translate(-1 -22.79)" style="fill:#41e3d0"/><path d="M151.74,111.77c-.5-6.17-8.22-6.9-12.87-7.15s-11.44,0-23.51,7.78c-8.2,5.28-15.24,15.76-16.87,25.55-1.12,6.71-1,16.42,4.64,21.27,5.43,4.66,14.1,2,17.79-3.49,3.89-5.82,2.74-13.94,5-20.44,2.61-7.51,6.12-11.95,13.31-14.51C143.52,119.25,152.24,118.1,151.74,111.77Z" transform="translate(-1 -22.79)" style="fill:#fff;opacity:0.30000001192092896;isolation:isolate"/><path d="M314.28,279.34s23.59,27.68,34.9,35.79c8.58,6.16,16.43-25.49-13-54.73-28.76-28.59-52.84-33.87-52.84-33.87Z" transform="translate(-1 -22.79)" style="fill:#d5e9f2"/><path d="M336.2,260.4c-28.76-28.59-52.84-33.87-52.84-33.87l2.57,4.4a153.23,153.23,0,0,1,33.83,25.86c19.76,19.64,22.69,40.37,19.89,50a91,91,0,0,0,9.53,8.34C357.74,321.29,365.61,289.64,336.2,260.4Z" transform="translate(-1 -22.79)" style="fill:#a8d7e9"/></svg>