<svg id="Layer_2" data-name="Layer 2" xmlns="http://www.w3.org/2000/svg" viewBox="0 0 750.52 450.42"><path d="M542.74,253.59c-45.64-66.38-156.62-66.38-156.62-66.38s-111,0-156.61,66.38C187.62,314.52,188,397.76,188,397.76l40.45,51.86H543.78l40.45-51.86S584.63,314.52,542.74,253.59Z" style="fill:#d5e9f2"/><path d="M542.8,253.59c-17.89-26-45.82-41.84-73.18-51.46,14.16,8.81,27,20,36.88,34.35C548.39,297.4,548,380.65,548,380.65l-40.45,51.86H215.18l13.35,17.11H543.84l40.45-51.86S584.69,314.52,542.8,253.59Z" style="fill:#a8d7e9"/><path d="M486.73,267.08c-42.52-32.15-158.69-32.15-201.21,0-46.17,34.9-44.6,118.24-44.6,118.24H531.33S532.9,302,486.73,267.08Z" style="fill:#002b43"/><path d="M242.13,385.32c2.85-27.19,12.28-72.69,43.39-96.2C328,257,444.21,257,486.73,289.12c31.11,23.51,40.54,69,43.39,96.2h1.21s1.57-83.34-44.6-118.24c-42.52-32.15-158.69-32.15-201.21,0-46.17,34.9-44.6,118.24-44.6,118.24Z" style="fill:#000f16"/><rect x="345.16" y="171.66" width="81.94" height="34.23" rx="6.22" style="fill:#d5e9f2"/><polygon points="367.62 188.25 376.96 101.13 389.4 101.13 404.63 188.77 367.62 188.25" style="fill:#d5e9f2"/><path d="M398.57,101.13a15,15,0,1,1-15-15h0A15,15,0,0,1,398.57,101.13Z" style="fill:#d5e9f2"/><path d="M392.92,89.38A15,15,0,0,1,370,107.69,15,15,0,1,0,393,89.38Z" style="fill:#a8d7e9"/><polygon points="228.47 449.62 543.78 449.62 584.23 397.76 188.02 397.76 228.47 449.62" style="fill:#a8d7e9"/><path d="M427.09,189.48c0,2.18-1.39,4-3.11,4H389.24c-1.72,0-3.12-1.78-3.12-4V175.62c0-2.19,1.4-4,3.12-4H424c1.72,0,3.11,1.77,3.11,4Z" style="fill:#a8d7e9"/><path d="M324,215.83c-5-9.67-27.92-4.13-35.39-.6-6.1,2.88-17.15,9.26-24.19,16a83.07,83.07,0,0,0-14.92,15.46c-3.6,4.86-10.41,14.85-6,21.22,4.79,7,12.89.93,16.91-3.12,10.48-10.52,18.52-21.8,32.71-28.21C300.13,233.46,330,227.22,324,215.83Z" style="fill:#fff"/><path d="M675.19,315.46c-4.21.51-8.69,11.16-10,14.15-2.18,5-6.69,19.21-3.8,26.71.32,4.92,2.45,8.24,7.71,6.95,7.95-1.95,12.84-27.7,12.7-34.71C681.73,324.2,681,314.75,675.19,315.46Z" style="fill:#fff"/><path d="M99.82,315.55c4.21.52,8.69,11.17,10,14.15,2.18,5,6.69,19.22,3.81,26.71-.32,4.92-2.46,8.25-7.72,7-7.94-2-12.84-27.71-12.7-34.71C93.29,324.29,94,314.83,99.82,315.55Z" style="fill:#fff"/><path d="M395,270.94a2.46,2.46,0,0,1-2.47,2.45h0a2.46,2.46,0,0,1-2.44-2.47V259.63a2.47,2.47,0,0,1,2.46-2.45h0a2.47,2.47,0,0,1,2.45,2.46Z" style="fill:#41e3d0"/><path d="M353.89,300.29a2.47,2.47,0,0,1,2.45,2.46h0a2.46,2.46,0,0,1-2.47,2.45H342.58a2.47,2.47,0,0,1-2.45-2.46h0a2.45,2.45,0,0,1,2.45-2.45h11.31Z" style="fill:#41e3d0"/><path d="M358.35,283.24a2.47,2.47,0,0,1,.93,3.35h0a2.46,2.46,0,0,1-3.35.93L346.1,282a2.46,2.46,0,0,1-.93-3.35h0a2.45,2.45,0,0,1,3.34-.93h0Z" style="fill:#41e3d0"/><path d="M375.31,271.75a2.46,2.46,0,0,1-1.18,3.26h0a2.46,2.46,0,0,1-3.27-1.18L366,263.61a2.46,2.46,0,0,1,1.18-3.27h0a2.46,2.46,0,0,1,3.27,1.18Z" style="fill:#41e3d0"/><path d="M432.13,301.05a2.49,2.49,0,0,0-2.49,2.48h0a2.48,2.48,0,0,0,2.46,2.5h11.45a2.5,2.5,0,0,0,2.5-2.48h0a2.49,2.49,0,0,0-2.48-2.49Z" style="fill:#41e3d0"/><path d="M426.64,283.44a2.45,2.45,0,0,0-.94,3.33h0a2.44,2.44,0,0,0,3.31,1h0l9.87-5.5a2.46,2.46,0,0,0,1-3.33h0a2.46,2.46,0,0,0-3.34-.95Z" style="fill:#41e3d0"/><path d="M409.75,271.83a2.46,2.46,0,0,0,1.16,3.27h0a2.47,2.47,0,0,0,3.28-1.16l4.85-10.2a2.44,2.44,0,0,0-1.14-3.26h0a2.44,2.44,0,0,0-3.26,1.14v0Z" style="fill:#41e3d0"/><path d="M422.51,302.93c-.4-13.28-14.29-21.35-28.53-21.3a4.45,4.45,0,0,0-.81.08,3.57,3.57,0,0,0-.8-.09c-14.41-.13-27.17,7.55-28.61,20.5-.67,6,2.08,12.27,6.28,17,3.61,4,8.24,7.4,9.38,12.37a5.43,5.43,0,0,0-2.68,4.67v2.52l32.07.09v-2.52a5.43,5.43,0,0,0-2.23-4.41c1-4.89,5.41-8.19,9-12.06C420.07,315,422.7,309.09,422.51,302.93Zm-6.4,3.11c-.89,5.63-4.69,9.69-8.87,13.78-3.35,3.29-6,6.77-6.82,10.91H385.64c-.8-3.94-3.16-7.27-6.28-10.46-4.16-4.27-7.85-8-9.14-13.67a14.72,14.72,0,0,1,4.51-13.67c4.46-4.33,11.14-5.89,17.62-5.83a3.7,3.7,0,0,0,.81-.07,4.26,4.26,0,0,0,.8.08C406.25,287,418,294.41,416.11,306Z" style="fill:#41e3d0"/><rect x="389.23" y="328.65" width="7.08" height="32.07" transform="translate(46.91 736.43) rotate(-89.83)" style="fill:#41e3d0"/><rect x="389.21" y="338.18" width="7.07" height="32.06" transform="translate(37.36 745.9) rotate(-89.83)" style="fill:#41e3d0"/><path d="M376.67,360.13v.95a5.45,5.45,0,0,0,5.44,5.48h4.21V367a5.47,5.47,0,0,0,5.45,5.47h1.82a5.46,5.46,0,0,0,5.47-5.44v-.47h4.21a5.46,5.46,0,0,0,5.47-5.44v-1Z" style="fill:#41e3d0"/><polygon points="42.85 190.88 26.1 179.62 7.32 187.04 12.85 167.63 0 152.07 20.17 151.33 31 134.29 37.93 153.25 57.48 158.28 41.6 170.74 42.85 190.88" style="fill:#ffbf37"/><polygon points="140.01 256.67 123.25 245.41 104.48 252.83 110.01 233.42 97.16 217.86 117.33 217.12 128.15 200.08 135.09 219.04 154.64 224.08 138.75 236.53 140.01 256.67" style="fill:#f05403"/><polygon points="219.18 125.37 213.35 110.27 197.61 106.51 210.18 96.31 208.89 80.17 222.48 88.97 237.42 82.76 233.26 98.4 243.78 110.7 227.62 111.57 219.18 125.37" style="fill:#f00d01"/><polygon points="467.13 52.82 472.6 33.39 459.7 17.86 479.87 17.07 490.65 0 497.64 18.94 517.2 23.91 501.36 36.41 502.67 56.55 485.88 45.34 467.13 52.82" style="fill:#41e3d0"/><polygon points="561.47 157.85 577.43 145.49 576.3 125.34 592.98 136.7 611.8 129.4 606.15 148.78 618.91 164.42 598.74 165.03 587.81 182 580.99 163 561.47 157.85" style="fill:#008a79"/><polygon points="692.71 187.13 712.66 184.04 721.43 165.86 730.52 183.88 750.52 186.6 736.2 200.82 739.79 220.69 721.84 211.46 704.06 221.01 707.29 201.09 692.71 187.13" style="fill:#ff5c5c"/><polygon points="682.54 92.36 696.02 90.28 701.95 77.99 708.1 90.17 721.62 92.01 711.93 101.62 714.36 115.04 702.23 108.8 690.21 115.26 692.4 101.8 682.54 92.36" style="fill:#ffbf37"/><path d="M94.3,287.55l.15.22Z" style="fill:#d5e9f2"/><path d="M95.35,289.07c.12.2.26.4.39.6C95.61,289.47,95.47,289.27,95.35,289.07Z" style="fill:#d5e9f2"/><path d="M96.38,290.67l.44.7Z" style="fill:#d5e9f2"/><path d="M93.08,285.94l.31.39Z" style="fill:#d5e9f2"/><path d="M91.19,283.83a3.83,3.83,0,0,1,.28.29A3.83,3.83,0,0,0,91.19,283.83Z" style="fill:#d5e9f2"/><path d="M92.1,284.77l.33.38Z" style="fill:#d5e9f2"/><path d="M83.64,450.41H158.8c-2.44-7.52-40.15-123.2-61.75-158.65-11.21,14.4-19.93,46-20.7,86.44C75.89,402.06,79.63,428.38,83.64,450.41Z" style="fill:#d5e9f2"/><path d="M76.35,378.2c.77-40.46,9.49-72,20.7-86.44h0c-.08-.13-.16-.25-.23-.38l-.44-.7-.64-1c-.13-.2-.27-.4-.39-.6-.31-.45-.6-.88-.9-1.3l-.15-.22c-.31-.43-.61-.83-.91-1.22l-.31-.39c-.22-.28-.44-.54-.65-.79l-.33-.38c-.21-.24-.42-.47-.63-.68a3.83,3.83,0,0,0-.28-.29c-.29-.3-.58-.57-.86-.81-19.8-16.75-42,25.58-43.28,91.3-.49,25.52,1.62,52.7,4.32,76.12H83.64C79.63,428.38,75.89,402.06,76.35,378.2Z" style="fill:#a8d7e9"/><path d="M680.55,287.69l.18-.25Z" style="fill:#d5e9f2"/><path d="M698.67,378.1c-.77-40.45-9.49-72-20.7-86.44C656.25,327.31,618.26,444,616.18,450.41h75.17C695.38,428.36,699.12,402,698.67,378.1Z" style="fill:#d5e9f2"/><path d="M681.63,286.24c.1-.14.2-.27.31-.4C681.83,286,681.73,286.1,681.63,286.24Z" style="fill:#d5e9f2"/><path d="M683.54,284l.28-.29Z" style="fill:#d5e9f2"/><path d="M678.2,291.28l.44-.7Z" style="fill:#d5e9f2"/><path d="M682.58,285.05l.33-.37Z" style="fill:#d5e9f2"/><path d="M679.28,289.57l.39-.59Z" style="fill:#d5e9f2"/><path d="M691.35,450.41h32.29c2.7-23.44,4.81-50.66,4.33-76.22-1.26-65.71-23.48-108-43.28-91.3-.28.24-.57.52-.87.81l-.28.29c-.21.22-.42.44-.63.69l-.33.37-.64.79c-.11.13-.21.26-.31.4q-.45.57-.9,1.2l-.18.25c-.29.41-.58.84-.88,1.29l-.39.59c-.21.33-.43.66-.64,1l-.44.7-.24.37h0c11.21,14.4,19.93,46,20.7,86.44C699.12,402,695.38,428.36,691.35,450.41Z" style="fill:#a8d7e9"/></svg>